<svg width="30" height="30" viewBox="0 0 30 30" fill="none" xmlns="http://www.w3.org/2000/svg">
<rect width="30" height="30" fill="#F5F5F5"/>
<rect width="1440" height="1024" transform="translate(-546 -341)" fill="#F7ECDE"/>
<mask id="mask0_0_1" style="mask-type:alpha" maskUnits="userSpaceOnUse" x="-20" y="-24" width="650" height="449">
<rect x="-20" y="-24" width="650" height="449" rx="10" fill="#D9D9D9"/>
</mask>
<g mask="url(#mask0_0_1)">
<mask id="path-2-inside-1_0_1" fill="white">
<path d="M-20 -24H630V56H-20V-24Z"/>
</mask>
<path d="M-20 -24H630V56H-20V-24Z" fill="#54BAB9"/>
<path d="M630 55H-20V57H630V55Z" fill="#E4E4E4" mask="url(#path-2-inside-1_0_1)"/>
<circle cx="15" cy="15" r="15" fill="#9ED2C6"/>
<circle cx="15" cy="15" r="15" fill="#4CAF50"/>
<path d="M21.6861 10.3144C22.1046 10.733 22.1046 11.4093 21.6861 11.8279L13.1142 20.3998C12.6956 20.8183 12.0193 20.8183 11.6007 20.3998L7.31381 16.1138C6.8954 15.6953 6.8954 15.0189 7.31381 14.6004C7.7323 14.1818 8.41068 14.1818 8.82923 14.6004L12.3273 18.1262L20.1726 10.3144C20.5912 9.8952 21.2675 9.8952 21.6861 10.3144Z" fill="white"/>
</g>
</svg>
