<svg width="41" height="41" viewBox="0 0 41 41" fill="none" xmlns="http://www.w3.org/2000/svg">
<path d="M20 12.4994C15.8578 12.4994 12.5703 15.8572 12.5703 19.9291C12.5703 24.001 15.7891 27.4994 20 27.4994C24.2109 27.4994 27.4297 24.1416 27.4297 20.0697C27.4297 15.9978 24.1406 12.4994 20 12.4994ZM39.7891 27.1791L34.8516 19.9994L39.7852 12.8893C40.2799 12.1764 39.8714 11.1908 39.0175 11.0361L30.5019 9.49706L28.9628 0.981438C28.8085 0.127531 27.823 -0.281063 27.1097 0.213937L20 5.21738L12.8203 0.283469C12.1074 -0.211219 11.1219 0.196984 10.9672 1.05097L9.50001 9.56972L0.981257 11.1088C0.127585 11.2572 -0.280931 12.2494 0.213757 12.89L5.14766 20.0697L0.214069 27.1799C-0.280619 27.8928 0.127741 28.8783 0.981569 29.033L9.4972 30.5721L11.0363 39.0877C11.1906 39.9416 12.1761 40.3502 12.8894 39.8552L20 34.9213L27.1102 39.8549C27.8232 40.3497 28.8094 39.9414 28.9633 39.0875L30.5024 30.5719L39.018 29.0328C39.875 28.8822 40.2813 27.89 39.7891 27.1791ZM20 29.9994C14.4774 29.9994 10.0703 25.5221 10.0703 20.0697C10.0703 14.5471 14.5477 10.14 20 10.14C25.4524 10.14 29.9297 14.6166 29.9297 20.0697C29.9297 25.5932 25.5234 29.9994 20 29.9994Z" fill="#354259"/>
</svg>
